<?xml version="1.0" encoding="UTF-8" standalone="no"?>
<!-- Created with Inkscape (http://www.inkscape.org/) -->

<svg
   xmlns:dc="http://purl.org/dc/elements/1.1/"
   xmlns:cc="http://creativecommons.org/ns#"
   xmlns:rdf="http://www.w3.org/1999/02/22-rdf-syntax-ns#"
   xmlns:svg="http://www.w3.org/2000/svg"
   xmlns="http://www.w3.org/2000/svg"
   xmlns:sodipodi="http://sodipodi.sourceforge.net/DTD/sodipodi-0.dtd"
   xmlns:inkscape="http://www.inkscape.org/namespaces/inkscape"
   width="54"
   height="54"
   viewBox="0 0 14.2875 14.2875"
   version="1.1"
   id="svg8"
   inkscape:version="0.92.4 5da689c313, 2019-01-14"
   sodipodi:docname="1.svg">
  <defs
     id="defs2" />
  <sodipodi:namedview
     id="base"
     pagecolor="#ffffff"
     bordercolor="#0034ff"
     borderopacity="1"
     inkscape:pageopacity="0.0"
     inkscape:pageshadow="2"
     inkscape:zoom="11.2"
     inkscape:cx="5.863826"
     inkscape:cy="22.646079"
     inkscape:document-units="cm"
     inkscape:current-layer="layer1"
     showgrid="true"
     units="px"
     inkscape:pagecheckerboard="true"
     inkscape:showpageshadow="false"
     inkscape:window-width="1918"
     inkscape:window-height="1066"
     inkscape:window-x="0"
     inkscape:window-y="12"
     inkscape:window-maximized="0" />
  <metadata
     id="metadata5">
    <rdf:RDF>
      <cc:Work
         rdf:about="">
        <dc:format>image/svg+xml</dc:format>
        <dc:type
           rdf:resource="http://purl.org/dc/dcmitype/StillImage" />
        <dc:title />
      </cc:Work>
    </rdf:RDF>
  </metadata>
  <g
     inkscape:label="Layer 1"
     inkscape:groupmode="layer"
     id="layer1"
     transform="translate(0,-282.71251)">
    <g
       transform="translate(-15.471644,0.321405)"
       id="g6695">
      <path
         style="opacity:1;fill:#000000;fill-opacity:1;stroke:#000000;stroke-width:1.05833328;stroke-linecap:round;stroke-linejoin:round;stroke-miterlimit:4;stroke-dasharray:none;stroke-opacity:1"
         d="m 19.43884,283.92021 a 1.1809117,1.1809117 0 0 0 -1.180807,1.18081 1.1809117,1.1809117 0 0 0 0.892969,1.1436 3.8144336,3.8144336 0 0 0 -0.461471,1.81694 v 1.39165 c -0.913807,0.52777 -1.526521,1.07738 -1.526521,2.2071 0,1.61824 1.252136,2.54059 2.835485,2.61689 v 0.65423 a 0.21809226,0.21809226 0 0 0 0.218075,0.21807 h 0.872298 a 0.21809226,0.21809226 0 0 0 0.218075,-0.21807 v -0.85473 a 3.0162158,3.0162158 0 0 1 -0.24443,0.0801 3.0162158,3.0162158 0 0 0 0.24443,-0.0801 h 0.01499 a 3.5309135,3.5309135 0 0 1 2.586922,0 h 0.01499 v 0.85473 a 0.21809226,0.21809226 0 0 0 0.218075,0.21807 h 0.872298 a 0.21809226,0.21809226 0 0 0 0.218074,-0.21807 v -0.65423 c 1.58335,-0.0829 2.835486,-1.00518 2.835486,-2.61689 1e-6,-1.21695 -0.713019,-1.83215 -1.744596,-2.32286 v -1.27589 a 3.7817197,3.7817197 0 0 0 -0.490926,-1.86655 3.8471475,3.8471475 0 0 0 -0.0026,-0.004 1.1809117,1.1809117 0 0 0 0.728647,-1.08985 1.1809117,1.1809117 0 0 0 -1.180807,-1.18081 1.1809117,1.1809117 0 0 0 -1.104842,0.76688 3.8144336,3.8144336 0 0 0 -3.698482,0.0899 1.1809117,1.1809117 0 0 0 -1.135331,-0.8568 z m 4.729427,10.23659 a 3.0162158,3.0162158 0 0 0 0.144694,0.0367 3.0162158,3.0162158 0 0 1 -0.144694,-0.0367 z m -3.250448,0.0367 a 3.0162158,3.0162158 0 0 1 -0.147278,0.032 3.0162158,3.0162158 0 0 0 0.147278,-0.032 z m 3.542419,0.032 a 3.0162158,3.0162158 0 0 0 0.144694,0.0217 3.0162158,3.0162158 0 0 1 -0.144694,-0.0217 z m -3.834391,0.0217 a 3.0162158,3.0162158 0 0 1 -0.157096,0.0181 3.0162158,3.0162158 0 0 0 0.157096,-0.0181 z m 4.136182,0.0181 a 3.0162158,3.0162158 0 0 0 0.252181,0.0119 3.0162158,3.0162158 0 0 1 -0.252181,-0.0119 z"
         id="path6115"
         inkscape:connector-curvature="0" />
      <circle
         style="opacity:1;fill:#88a400;fill-opacity:1;stroke:none;stroke-width:2.64583302;stroke-linecap:round;stroke-linejoin:round;stroke-miterlimit:4;stroke-dasharray:none;stroke-opacity:1"
         id="circle6117"
         cx="19.438963"
         cy="285.10095"
         r="1.1809117" />
      <circle
         r="1.1809117"
         cy="285.10095"
         cx="25.37726"
         id="circle6119"
         style="opacity:1;fill:#88a400;fill-opacity:1;stroke:none;stroke-width:2.64583302;stroke-linecap:round;stroke-linejoin:round;stroke-miterlimit:4;stroke-dasharray:none;stroke-opacity:1" />
      <path
         style="fill:#c0dc35;fill-opacity:1;stroke-width:0.26458332"
         inkscape:connector-curvature="0"
         class="cls-1"
         d="m 28.067696,291.66023 c 0,1.61171 -1.25185,2.53423 -2.835199,2.61711 -0.07197,0 -0.143941,0 -0.218093,0 a 3.016216,3.016216 0 0 1 -1.090461,-0.20064 h -0.01527 a 3.5309136,3.5309136 0 0 0 -2.586575,0 h -0.01527 a 3.016216,3.016216 0 0 1 -1.090462,0.20064 c -0.07415,0 -0.146122,0 -0.218092,0 -1.58335,-0.0763 -2.8352,-0.99887 -2.8352,-2.61711 0,-1.12972 0.612839,-1.67932 1.526647,-2.20709 v -1.39143 a 3.8144336,3.8144336 0 0 1 6.324675,-2.87227 c 0.06543,0.0568 0.126494,0.1134 0.187559,0.17447 a 3.8471474,3.8471474 0 0 1 0.630288,0.83093 3.7817197,3.7817197 0 0 1 0.490706,1.86687 v 1.27584 c 1.031577,0.49071 1.744738,1.10573 1.744738,2.32268 z"
         id="path6121" />
      <circle
         style="fill:#000000;fill-opacity:1;stroke-width:0.26458332"
         class="cls-3"
         cx="20.761604"
         cy="287.18936"
         r="0.32713836"
         id="circle6123" />
      <circle
         style="fill:#000000;fill-opacity:1;stroke-width:0.26458332"
         class="cls-3"
         cx="24.469175"
         cy="287.18936"
         r="0.32713836"
         id="circle6125" />
      <path
         style="fill:#ffffff;fill-opacity:1;stroke-width:0.26458332"
         inkscape:connector-curvature="0"
         class="cls-4"
         d="m 21.306836,294.0767 v 0.85492 a 0.21809226,0.21809226 0 0 1 -0.218093,0.21809 h -0.872369 a 0.21809226,0.21809226 0 0 1 -0.218092,-0.21809 v -0.65428 c 0.07197,0 0.143941,0 0.218092,0 a 3.016216,3.016216 0 0 0 1.090462,-0.20064 z"
         id="path6127" />
      <path
         style="fill:#ffffff;fill-opacity:1;stroke-width:0.26458332"
         inkscape:connector-curvature="0"
         class="cls-4"
         d="m 25.232497,294.27734 v 0.65428 a 0.21809226,0.21809226 0 0 1 -0.218093,0.21809 h -0.872369 a 0.21809226,0.21809226 0 0 1 -0.218092,-0.21809 v -0.85492 a 3.016216,3.016216 0 0 0 1.090461,0.20064 c 0.07415,0 0.146122,0 0.218093,0 z"
         id="path6129" />
      <circle
         style="fill:#000000;fill-opacity:1;stroke-width:0.26458332"
         class="cls-5"
         cx="19.671143"
         cy="291.76929"
         r="0.54523063"
         id="circle6131" />
      <circle
         style="fill:#000000;fill-opacity:1;stroke-width:0.26458332"
         class="cls-5"
         cx="25.559635"
         cy="291.76929"
         r="0.54523063"
         id="circle6133" />
    </g>
  </g>
</svg>
