<?xml version="1.0" encoding="UTF-8" standalone="no"?>
<!-- Created with Inkscape (http://www.inkscape.org/) -->

<svg
   xmlns:dc="http://purl.org/dc/elements/1.1/"
   xmlns:cc="http://creativecommons.org/ns#"
   xmlns:rdf="http://www.w3.org/1999/02/22-rdf-syntax-ns#"
   xmlns:svg="http://www.w3.org/2000/svg"
   xmlns="http://www.w3.org/2000/svg"
   xmlns:sodipodi="http://sodipodi.sourceforge.net/DTD/sodipodi-0.dtd"
   xmlns:inkscape="http://www.inkscape.org/namespaces/inkscape"
   width="54"
   height="54"
   viewBox="0 0 14.2875 14.2875"
   version="1.1"
   id="svg8"
   inkscape:version="0.92.4 5da689c313, 2019-01-14"
   sodipodi:docname="7.svg">
  <defs
     id="defs2" />
  <sodipodi:namedview
     id="base"
     pagecolor="#ffffff"
     bordercolor="#0034ff"
     borderopacity="1"
     inkscape:pageopacity="0.0"
     inkscape:pageshadow="2"
     inkscape:zoom="7.919596"
     inkscape:cx="1.0809483"
     inkscape:cy="20.413619"
     inkscape:document-units="cm"
     inkscape:current-layer="layer1"
     showgrid="true"
     units="px"
     inkscape:pagecheckerboard="true"
     inkscape:showpageshadow="false"
     inkscape:window-width="1918"
     inkscape:window-height="1066"
     inkscape:window-x="0"
     inkscape:window-y="12"
     inkscape:window-maximized="0" />
  <metadata
     id="metadata5">
    <rdf:RDF>
      <cc:Work
         rdf:about="">
        <dc:format>image/svg+xml</dc:format>
        <dc:type
           rdf:resource="http://purl.org/dc/dcmitype/StillImage" />
        <dc:title />
      </cc:Work>
    </rdf:RDF>
  </metadata>
  <g
     inkscape:label="Layer 1"
     inkscape:groupmode="layer"
     id="layer1"
     transform="translate(0,-282.71251)">
    <g
       transform="translate(-92.229147,0.321405)"
       id="g7329">
      <path
         inkscape:connector-curvature="0"
         id="path6245"
         d="m 96.196335,283.92021 a 1.1809117,1.1809117 0 0 0 -1.180807,1.18081 1.1809117,1.1809117 0 0 0 0.892969,1.1436 3.8144336,3.8144336 0 0 0 -0.461471,1.81694 v 1.39165 c -0.913807,0.52777 -1.526521,1.07738 -1.526521,2.2071 0,1.61824 1.252136,2.54059 2.835485,2.61689 v 0.65423 a 0.21809226,0.21809226 0 0 0 0.218075,0.21807 h 0.872298 a 0.21809226,0.21809226 0 0 0 0.218075,-0.21807 v -0.85473 a 3.0162158,3.0162158 0 0 1 -0.24443,0.0801 3.0162158,3.0162158 0 0 0 0.24443,-0.0801 h 0.01499 a 3.5309135,3.5309135 0 0 1 2.586922,0 h 0.015 v 0.85473 a 0.21809226,0.21809226 0 0 0 0.21808,0.21807 h 0.87229 a 0.21809226,0.21809226 0 0 0 0.21808,-0.21807 v -0.65423 c 1.58335,-0.0829 2.83549,-1.00518 2.83549,-2.61689 0,-1.21695 -0.71302,-1.83215 -1.7446,-2.32286 v -1.27589 a 3.7817197,3.7817197 0 0 0 -0.49093,-1.86655 3.8471475,3.8471475 0 0 0 -0.003,-0.004 1.1809117,1.1809117 0 0 0 0.72865,-1.08985 1.1809117,1.1809117 0 0 0 -1.18081,-1.18081 1.1809117,1.1809117 0 0 0 -1.10484,0.76688 3.8144336,3.8144336 0 0 0 -3.69848,0.0899 1.1809117,1.1809117 0 0 0 -1.135331,-0.8568 z m 4.729425,10.23659 a 3.0162158,3.0162158 0 0 0 0.1447,0.0367 3.0162158,3.0162158 0 0 1 -0.1447,-0.0367 z m -3.250446,0.0367 a 3.0162158,3.0162158 0 0 1 -0.147278,0.032 3.0162158,3.0162158 0 0 0 0.147278,-0.032 z m 3.542416,0.032 a 3.0162158,3.0162158 0 0 0 0.1447,0.0217 3.0162158,3.0162158 0 0 1 -0.1447,-0.0217 z m -3.834388,0.0217 a 3.0162158,3.0162158 0 0 1 -0.157096,0.0181 3.0162158,3.0162158 0 0 0 0.157096,-0.0181 z m 4.136178,0.0181 a 3.0162158,3.0162158 0 0 0 0.25218,0.0119 3.0162158,3.0162158 0 0 1 -0.25218,-0.0119 z"
         style="opacity:1;fill:#000000;fill-opacity:1;stroke:#000000;stroke-width:1.05833328;stroke-linecap:round;stroke-linejoin:round;stroke-miterlimit:4;stroke-dasharray:none;stroke-opacity:1" />
      <g
         style="stroke-width:1.04852688"
         transform="matrix(0.953719,0,0,0.953719,92.445174,13.399963)"
         id="g6265">
        <circle
           style="opacity:1;fill:#bdbf42;fill-opacity:1;stroke:none;stroke-width:2.7742269;stroke-linecap:round;stroke-linejoin:round;stroke-miterlimit:4;stroke-dasharray:none;stroke-opacity:1"
           id="circle6247"
           cx="3.9333212"
           cy="284.8858"
           r="1.2382176" />
        <circle
           r="1.2382176"
           cy="284.8858"
           cx="10.159787"
           id="circle6249"
           style="opacity:1;fill:#bdbf42;fill-opacity:1;stroke:none;stroke-width:2.7742269;stroke-linecap:round;stroke-linejoin:round;stroke-miterlimit:4;stroke-dasharray:none;stroke-opacity:1" />
        <path
           style="fill:#fdff69;fill-opacity:1;stroke-width:0.27742273"
           inkscape:connector-curvature="0"
           class="cls-1"
           d="m 12.98078,291.76337 c 0,1.68992 -1.312598,2.65721 -2.972782,2.74411 -0.075461,0 -0.1509261,0 -0.2286764,0 A 3.1625835,3.1625835 0 0 1 8.6359442,294.2971 h -0.016006 a 3.7022578,3.7022578 0 0 0 -2.7120932,0 H 5.891838 a 3.1625835,3.1625835 0 0 1 -1.1433783,0.21038 c -0.077751,0 -0.1532128,0 -0.2286753,0 -1.6601848,-0.08 -2.9727833,-1.04734 -2.9727833,-2.74411 0,-1.18454 0.6425783,-1.76081 1.6007297,-2.3142 v -1.45895 a 3.9995361,3.9995361 0 0 1 6.6315917,-3.01165 c 0.068607,0.0595 0.1326324,0.1189 0.1966613,0.18294 a 4.0338374,4.0338374 0 0 1 0.6608732,0.87125 3.9652347,3.9652347 0 0 1 0.514519,1.95746 v 1.33775 c 1.081636,0.51453 1.829405,1.15939 1.829404,2.4354 z"
           id="path6251" />
        <circle
           style="fill:#000000;fill-opacity:1;stroke-width:0.27742273"
           class="cls-3"
           cx="5.320148"
           cy="287.07553"
           r="0.34301338"
           id="circle6253" />
        <circle
           style="fill:#000000;fill-opacity:1;stroke-width:0.27742273"
           class="cls-3"
           cx="9.207634"
           cy="287.07553"
           r="0.34301338"
           id="circle6255" />
        <path
           style="fill:#ffffff;fill-opacity:1;stroke-width:0.27742273"
           inkscape:connector-curvature="0"
           class="cls-4"
           d="m 5.8918371,294.2971 v 0.89641 a 0.22867559,0.22867559 0 0 1 -0.2286762,0.22867 H 4.7484588 a 0.22867559,0.22867559 0 0 1 -0.2286753,-0.22867 v -0.68603 c 0.075461,0 0.1509259,0 0.2286753,0 a 3.1625835,3.1625835 0 0 0 1.1433783,-0.21038 z"
           id="path6257" />
        <path
           style="fill:#ffffff;fill-opacity:1;stroke-width:0.27742273"
           inkscape:connector-curvature="0"
           class="cls-4"
           d="m 10.007998,294.50748 v 0.68603 a 0.22867559,0.22867559 0 0 1 -0.2286764,0.22867 H 8.8646195 a 0.22867559,0.22867559 0 0 1 -0.2286753,-0.22867 v -0.89641 a 3.1625835,3.1625835 0 0 0 1.1433774,0.21038 c 0.077751,0 0.1532128,0 0.2286764,0 z"
           id="path6259" />
        <circle
           style="fill:#000000;fill-opacity:1;stroke-width:0.27742273"
           class="cls-5"
           cx="4.1767693"
           cy="291.87772"
           r="0.57168895"
           id="circle6261" />
        <circle
           style="fill:#000000;fill-opacity:1;stroke-width:0.27742273"
           class="cls-5"
           cx="10.351011"
           cy="291.87772"
           r="0.57168895"
           id="circle6263" />
      </g>
    </g>
  </g>
</svg>
